# xmcd
#
# Track frame offsets:
#	150
#	14355
#	31880
#	47230
#	60275
#	74560
#	91127
#	111552
#	131020
#	147567
#	165927
#	186112
#	200237
#	217087
#	229840
#	243585
#	264667
#	278145
#	295242
#
# Disc length: 4166 seconds
#
# Revision: 1
# Processed by: cddbd v1.5.1PL0 Copyright (c) Steve Scherf et al.
# Submitted via: audiograbber 1.83.01
#
DISCID=2b104413
DTITLE=Various Artist - Helping You Back To Work (Volume Six)
DYEAR=2002
DGENRE=Metal
TTITLE0=Shelter - Song Of Brahma
TTITLE1=Cursed Earth - Relationshit
TTITLE2=Norm Rejection - The Death Of The Subject
TTITLE3=Gutworm - Your Demise
TTITLE4=Bambi - Cattle Strap
TTITLE5=Sist - Right To Speak
TTITLE6=Rabies Caste - Got It From Blake
TTITLE7=Suckapunch - New Bones For The Empress
TTITLE8=Synapse - Swallow Harder
TTITLE9=thisGIRL - Fake Moustache
TTITLE10=Trenchfoot - The Colour Of Hate (Labotomize)
TTITLE11=Snub - Arson
TTITLE12=Substate - Escape
TTITLE13=Gimik - Don't Look Down
TTITLE14=Monkey Boy - 50ft Drop
TTITLE15=Descent - A Darkened Light
TTITLE16=Choka - Why?
TTITLE17=Purple Sticky Punch P>S>P - Thoughts Never Thought
TTITLE18=Turnface - Stand
EXTD=LockJaw Records
EXTT0=
EXTT1=
EXTT2=
EXTT3=
EXTT4=
EXTT5=
EXTT6=
EXTT7=
EXTT8=
EXTT9=
EXTT10=
EXTT11=
EXTT12=
EXTT13=
EXTT14=
EXTT15=
EXTT16=
EXTT17=
EXTT18=
PLAYORDER=
